<?xml version="1.0" encoding="UTF-8" standalone="no"?>
<!DOCTYPE svg PUBLIC "-//W3C//DTD SVG 1.1//EN" "http://www.w3.org/Graphics/SVG/1.1/DTD/svg11.dtd">
<svg width="100%" height="100%" viewBox="0 0 1440 900" version="1.1" xmlns="http://www.w3.org/2000/svg" xmlns:xlink="http://www.w3.org/1999/xlink" xml:space="preserve" xmlns:serif="http://www.serif.com/" style="fill-rule:evenodd;clip-rule:evenodd;stroke-linejoin:round;stroke-miterlimit:2;">
    <path d="M1466.7,157.713C1466.7,144.565 1456.03,133.89 1442.88,133.89L414.908,133.89C401.76,133.89 391.085,144.565 391.085,157.713L391.085,905.837C391.085,918.985 401.76,929.66 414.908,929.66L1442.88,929.66C1456.03,929.66 1466.7,918.985 1466.7,905.837L1466.7,157.713Z" style="fill:white;"/>
    <g transform="matrix(1,0,0,1,-0.499183,0)">
        <circle cx="419.837" cy="167.232" r="9.923" style="fill:rgb(238,111,100);"/>
    </g>
    <g transform="matrix(1,0,0,1,27.8427,0)">
        <circle cx="419.837" cy="167.232" r="9.923" style="fill:rgb(247,193,84);"/>
    </g>
    <g transform="matrix(1,0,0,1,57.2887,0)">
        <circle cx="419.837" cy="167.232" r="9.923" style="fill:rgb(102,199,89);"/>
    </g>
    <g transform="matrix(6.8594,0,0,1,-2291.52,0)">
        <rect x="391.085" y="196.123" width="152.916" height="4.199" style="fill:rgb(238,239,238);"/>
    </g>
    <rect x="391.085" y="200.322" width="1048.91" height="699.678" style="fill:rgb(243,244,246);"/>
    <g transform="matrix(1.871e-17,0.305557,-1,6.12323e-17,1282.97,222.803)">
        <path d="M566.857,396.327L566.857,338.524L957.211,338.524L957.211,284.851L1227.45,367.425L957.211,450L957.211,396.327L566.857,396.327Z" style="fill:rgb(223,223,223);"/>
    </g>
    <g transform="matrix(1,0,0,1,-17.2084,41.2597)">
        <rect x="832.965" y="609.308" width="199.566" height="53.745" style="fill:rgb(223,223,223);"/>
    </g>
    <g transform="matrix(0.750625,0,0,0.750625,216.696,93.7517)">
        <path d="M931.016,292.749C1105.03,292.749 1246.31,434.026 1246.31,608.039C1246.31,782.053 1105.03,923.33 931.016,923.33C757.003,923.33 615.726,782.053 615.726,608.039C615.726,434.026 757.003,292.749 931.016,292.749ZM931.016,312.862C1093.93,312.862 1226.19,445.127 1226.19,608.039C1226.19,770.952 1093.93,903.216 931.016,903.216C768.103,903.216 635.839,770.952 635.839,608.039C635.839,445.127 768.103,312.862 931.016,312.862Z" style="fill:rgb(223,223,223);"/>
    </g>
</svg>
