<?xml version="1.0" encoding="UTF-8" standalone="no"?>
<!DOCTYPE svg PUBLIC "-//W3C//DTD SVG 1.1//EN" "http://www.w3.org/Graphics/SVG/1.1/DTD/svg11.dtd">
<svg width="100%" height="100%" viewBox="0 0 1440 900" version="1.1" xmlns="http://www.w3.org/2000/svg" xmlns:xlink="http://www.w3.org/1999/xlink" xml:space="preserve" xmlns:serif="http://www.serif.com/" style="fill-rule:evenodd;clip-rule:evenodd;stroke-linejoin:round;stroke-miterlimit:2;">
    <path d="M1466.7,157.713C1466.7,144.565 1456.03,133.89 1442.88,133.89L414.908,133.89C401.76,133.89 391.085,144.565 391.085,157.713L391.085,905.837C391.085,918.985 401.76,929.66 414.908,929.66L1442.88,929.66C1456.03,929.66 1466.7,918.985 1466.7,905.837L1466.7,157.713Z" style="fill:white;"/>
    <g transform="matrix(1,0,0,1,-0.499183,0)">
        <circle cx="419.837" cy="167.232" r="9.923" style="fill:rgb(238,111,100);"/>
    </g>
    <g transform="matrix(1,0,0,1,27.8427,0)">
        <circle cx="419.837" cy="167.232" r="9.923" style="fill:rgb(247,193,84);"/>
    </g>
    <g transform="matrix(1,0,0,1,57.2887,0)">
        <circle cx="419.837" cy="167.232" r="9.923" style="fill:rgb(102,199,89);"/>
    </g>
    <g transform="matrix(6.8594,0,0,1,-2291.52,0)">
        <rect x="391.085" y="196.123" width="152.916" height="4.199" style="fill:rgb(238,239,238);"/>
    </g>
    <rect x="391.085" y="200.322" width="1048.91" height="699.678" style="fill:rgb(243,244,246);"/>
    <g transform="matrix(1,0,0,1,11.5616,-1.34249)">
        <path d="M720,254.499C720,247.186 714.063,241.249 706.75,241.249L431.849,241.249C424.536,241.249 418.599,247.186 418.599,254.499L418.599,280.999C418.599,288.311 424.536,294.248 431.849,294.248L706.75,294.248C714.063,294.248 720,288.311 720,280.999L720,254.499Z" style="fill:rgb(223,223,223);"/>
    </g>
    <g transform="matrix(2.17221,0,0,1,-479.124,88.7527)">
        <path d="M720,254.499C720,247.186 717.267,241.249 713.9,241.249L424.699,241.249C421.332,241.249 418.599,247.186 418.599,254.499L418.599,280.999C418.599,288.311 421.332,294.248 424.699,294.248L713.9,294.248C717.267,294.248 720,288.311 720,280.999L720,254.499Z" style="fill:rgb(223,223,223);"/>
    </g>
    <g transform="matrix(2.68463,0,0,1,-693.624,182.251)">
        <path d="M720,254.499C720,247.186 717.789,241.249 715.065,241.249L423.535,241.249C420.811,241.249 418.599,247.186 418.599,254.499L418.599,280.999C418.599,288.311 420.811,294.248 423.535,294.248L715.065,294.248C717.789,294.248 720,288.311 720,280.999L720,254.499Z" style="fill:rgb(223,223,223);"/>
    </g>
    <g transform="matrix(1.6834,0,0,1,-274.507,264.026)">
        <path d="M720,254.499C720,247.186 716.473,241.249 712.129,241.249L426.47,241.249C422.126,241.249 418.599,247.186 418.599,254.499L418.599,280.999C418.599,288.311 422.126,294.248 426.47,294.248L712.129,294.248C716.473,294.248 720,288.311 720,280.999L720,254.499Z" style="fill:rgb(223,223,223);"/>
    </g>
    <g transform="matrix(1.99398,0,0,1,-404.518,351.8)">
        <path d="M720,254.499C720,247.186 717.023,241.249 713.355,241.249L425.244,241.249C421.577,241.249 418.599,247.186 418.599,254.499L418.599,280.999C418.599,288.311 421.577,294.248 425.244,294.248L713.355,294.248C717.023,294.248 720,288.311 720,280.999L720,254.499Z" style="fill:rgb(223,223,223);"/>
    </g>
    <g transform="matrix(1.44791,0,0,1,-175.931,439.462)">
        <path d="M720,254.499C720,247.186 715.9,241.249 710.849,241.249L427.75,241.249C422.7,241.249 418.599,247.186 418.599,254.499L418.599,280.999C418.599,288.311 422.7,294.248 427.75,294.248L710.849,294.248C715.9,294.248 720,288.311 720,280.999L720,254.499Z" style="fill:rgb(223,223,223);"/>
    </g>
    <g transform="matrix(1,0,0,1,11.5616,517.775)">
        <path d="M720,254.499C720,247.186 714.063,241.249 706.75,241.249L431.849,241.249C424.536,241.249 418.599,247.186 418.599,254.499L418.599,280.999C418.599,288.311 424.536,294.248 431.849,294.248L706.75,294.248C714.063,294.248 720,288.311 720,280.999L720,254.499Z" style="fill:rgb(223,223,223);"/>
    </g>
</svg>
